{"title":"Ant Man 2015 HDRip EN-SUB XviD AC3-EVO","uid":12692343,"size":1517541986,"categoryP":"video","categoryS":"movies","magnet":"?xt=urn:btih:891aeb2e59bae3f363b896286300374af7e207a9&amp;dn=Ant+Man+2015+HDRip+EN-SUB+XviD+AC3-EVO&amp;tr=udp%3A%2F%2Ftracker.leechers-paradise.org%3A6969&amp;tr=udp%3A%2F%2Fzer0day.ch%3A1337&amp;tr=udp%3A%2F%2Fopen.demonii.com%3A1337&amp;tr=udp%3A%2F%2Ftracker.coppersurfer.tk%3A6969&amp;tr=udp%3A%2F%2Fexodus.desync.com%3A6969","seeders":0,"leechers":3,"uploader":"Mulva1989","files":3,"time":1446690038,"description":"Ant Man 2015 HDRip EN-SUB XviD AC3-EVO\r\n\r\nStars: Paul Rudd, Michael Douglas, Corey Stoll\r\nplot: Armed with a super-suit with the astonishing ability to shrink in scale but increase in strength, cat burglar Scott Lang must embrace his inner hero and help his mentor, Dr. Hank Pym, plan and pull off a heist that will save the world.\r\n\r\nScreens @ \nhttp://extraimago.com/images/2015/11/05/antman-screen1.png \nhttp://extraimago.com/images/2015/11/05/antman-screen2.png \nhttp://extraimago.com/images/2015/11/05/Ant.Man.2015.HDRip.XviD.AC3-EVO.avi.jpg\r\n\r\nFormat                      : AVI\r\nFormat/Info                 : Audio Video Interleave\r\nFormat profile              : OpenDML\r\nFormat settings             : rec\r\nFile size                   : 1.41 GiB\r\nDuration                    : 1h 57mn\r\nOverall bit rate            : 1 725 Kbps\r\nWriting application         : AVI-Mux GUI 1.17.8.3, Feb 16 201019:42:50\r\n\r\nVideo\r\nID                          : 0\r\nFormat                      : MPEG-4 Visual\r\nFormat profile              : Advanced   \r\nFormat settings, BVOP       : 2\r\nFormat settings, QPel       : No\r\nFormat settings, GMC        : No warppoints\r\nFormat settings, Matrix     : Default (H.263)\r\nMuxing mode                 : Packed bitstream\r\nCodec ID                    : XVID\r\nCodec ID/Hint               : XviD\r\nDuration                    : 1h 57mn\r\nBit rate                    : 1 527 Kbps\r\nWidth                       : 720 pixels\r\nHeight                      : 384 pixels\r\nDisplay aspect ratio        : 1.85:1\r\nFrame rate                  : 30.000 fps\r\nColor space                 : YUV\r\nChroma subsampling          : 4:2:0\r\nBit depth                   : 8 bits\r\nScan type                   : Progressive\r\nCompression mode            : Lossy\r\nBits/(Pixel*Frame)          : 0.184\r\nStream size                 : 1.25 GiB (89%)\r\nWriting library             : XviD 66\r\n\r\nAudio\r\nID                          : 1\r\nFormat                      : AC-3\r\nFormat/Info                 : Audio Coding 3\r\nMode extension              : CM (complete main)\r\nFormat settings, Endianness : Big\r\nCodec ID                    : 2000\r\nDuration                    : 1h 57mn\r\nBit rate mode               : Constant\r\nBit rate                    : 192 Kbps\r\nChannel(s)                  : 2 channels\r\nChannel positions           : Front: L R\r\nSampling rate               : 48.0 KHz\r\nBit depth                   : 16 bits\r\nCompression mode            : Lossy\r\nStream size                 : 161 MiB (11%)\r\nAlignment                   : Aligned on interleaves\r\nInterleave, duration        : 64 ms (1.92 video frames)\r\nInterleave, preload duratio : 192 ms\r\nTitle                       : AC3","torrent":{"xt":"urn:btih:891aeb2e59bae3f363b896286300374af7e207a9","amp;dn":"Ant+Man+2015+HDRip+EN-SUB+XviD+AC3-EVO","amp;tr":["udp%3A%2F%2Ftracker.leechers-paradise.org%3A6969","udp%3A%2F%2Fzer0day.ch%3A1337","udp%3A%2F%2Fopen.demonii.com%3A1337","udp%3A%2F%2Ftracker.coppersurfer.tk%3A6969","udp%3A%2F%2Fexodus.desync.com%3A6969"],"infoHash":"891aeb2e59bae3f363b896286300374af7e207a9","infoHashBuffer":{"type":"Buffer","data":[137,26,235,46,89,186,227,243,99,184,150,40,99,0,55,74,247,226,7,169]},"announce":[],"urlList":[]}}